<svg width="102" height="21" viewBox="0 0 102 21" fill="none" xmlns="http://www.w3.org/2000/svg">
<path d="M28.9683 0.5H24.8684V20.5H28.9683V0.5Z" fill="#101010"/>
<path d="M43.2014 20.5L49.8204 0.5H45.6218L40.8303 14.9376L36.0636 0.5H31.8649L38.4593 20.5H43.2014Z" fill="#101010"/>
<path d="M52.7193 0.5V20.5H66.9948V16.5198H57.0414V12.0698L65.34 12.0946V8.11434L57.0414 8.06489V4.50494H66.9948V0.5H52.7193Z" fill="#101010"/>
<path d="M74.333 16.4951V0.5H69.912V20.5H84.0887V16.4951H74.333Z" fill="#101010"/>
<path d="M91.3756 16.4951V0.5H86.9547V20.5H101.131V16.4951H91.3756Z" fill="#101010"/>
<path d="M10.741 0.5C5.28853 0.5 0.868408 4.92012 0.868408 10.3726H5.74993C5.74994 7.61611 7.98452 5.38152 10.741 5.38148V0.5Z" fill="#101010"/>
<path d="M15.7322 10.3726H20.6136C20.6136 15.8251 16.1935 20.2452 10.741 20.2452V15.3638C13.4976 15.3638 15.7322 13.1292 15.7322 10.3726Z" fill="#101010"/>
<rect x="10.6772" y="10.3088" width="9.93631" height="3.82166" fill="#101010"/>
<rect x="17.0461" y="20.5" width="10.1911" height="3.82166" transform="rotate(-90 17.0461 20.5)" fill="#101010"/>
<path d="M10.2161 15.3365C7.73662 15.5986 5.80471 17.6963 5.80471 20.2452C5.80471 17.519 3.59465 15.3089 0.868408 15.3089C3.41746 15.3089 5.51524 13.3768 5.77717 10.8972C6.0213 13.2346 7.87869 15.0922 10.2161 15.3365Z" fill="#101010"/>
<path d="M11.2668 5.40874C13.7464 5.1467 15.6783 3.04897 15.6783 0.5C15.6783 3.22625 17.8884 5.43631 20.6146 5.43631C18.0658 5.43631 15.9682 7.36809 15.7059 9.84741C15.4615 7.5102 13.6041 5.65294 11.2668 5.40874Z" fill="#101010"/>
</svg>
