<svg width="65" height="68" viewBox="0 0 65 68" fill="none" xmlns="http://www.w3.org/2000/svg">
<path d="M21.0451 43.9807C15.5613 45.0774 5.03224 44.529 0.645142 39.5936C5.36127 42.7742 14.6839 39.7032 19.0709 37.5097C12.6 35.5355 3.82579 31.6968 1.74192 22.7032C4.92256 27.529 12.929 31.9161 18.5226 29.7226C11.5032 23.1419 8.21288 17.2194 9.0903 8.88388C10.1871 15.4645 17.7548 22.1549 23.2387 24.3484C21.0451 13.271 22.0322 6.69033 28.0645 0.438721C22.9097 8.99356 27.0774 17.1097 30.3677 21.6065C33.5484 13.4903 37.9355 8.33549 46.4903 3.9484C40.0193 9.43227 36.5097 15.6839 37.8258 21.8258C45.1742 16.1226 52.3032 10.2 62.5032 12.9419C56.5806 11.2968 46.1613 20.729 44.6258 25.9936C50.9871 24.3484 60.529 25.0065 64.8064 30.4903C59.8709 28.6258 51.2064 29.3936 46.8193 32.6839C54.1677 34.1097 57.458 37.2903 63.3806 46.0645C58.2258 39.7032 47.1484 37.2903 43.3097 39.1549C46.7097 42.5549 56.1419 48.9161 54.8258 60.3226C53.1806 50.4516 43.529 46.8323 40.129 44.8581C41.4451 51.6581 42.5419 60.1032 36.729 68.1097C40.129 61.2 37.3871 53.0839 33.7677 47.6C31.9032 55.4968 28.2839 61.9678 20.6064 65.2581C24.9935 60.871 25.8709 54.729 26.9677 48.1484C19.2903 52.5355 12.6 56.5936 3.2774 54.6194C11.0645 54.4 16.5484 49.4645 21.0451 43.9807Z" fill="#101010"/>
</svg>
