<svg width="65" height="69" viewBox="0 0 65 69" fill="none" xmlns="http://www.w3.org/2000/svg">
<path d="M21.0451 44.4807C15.5613 45.5774 5.03224 45.029 0.645142 40.0936C5.36127 43.2742 14.6839 40.2032 19.0709 38.0097C12.6 36.0355 3.82579 32.1968 1.74192 23.2032C4.92256 28.029 12.929 32.4161 18.5226 30.2226C11.5032 23.6419 8.21288 17.7194 9.0903 9.38388C10.1871 15.9645 17.7548 22.6549 23.2387 24.8484C21.0451 13.771 22.0322 7.19033 28.0645 0.938721C22.9097 9.49356 27.0774 17.6097 30.3677 22.1065C33.5484 13.9903 37.9355 8.83549 46.4903 4.4484C40.0193 9.93227 36.5097 16.1839 37.8258 22.3258C45.1742 16.6226 52.3032 10.7 62.5032 13.4419C56.5806 11.7968 46.1613 21.229 44.6258 26.4936C50.9871 24.8484 60.529 25.5065 64.8064 30.9903C59.8709 29.1258 51.2064 29.8936 46.8193 33.1839C54.1677 34.6097 57.458 37.7903 63.3806 46.5645C58.2258 40.2032 47.1484 37.7903 43.3097 39.6549C46.7097 43.0549 56.1419 49.4161 54.8258 60.8226C53.1806 50.9516 43.529 47.3323 40.129 45.3581C41.4451 52.1581 42.5419 60.6032 36.729 68.6097C40.129 61.7 37.3871 53.5839 33.7677 48.1C31.9032 55.9968 28.2839 62.4678 20.6064 65.7581C24.9935 61.371 25.8709 55.229 26.9677 48.6484C19.2903 53.0355 12.6 57.0936 3.2774 55.1194C11.0645 54.9 16.5484 49.9645 21.0451 44.4807Z" fill="url(#paint0_linear_262_1188)"/>
<defs>
<linearGradient id="paint0_linear_262_1188" x1="32.7258" y1="0.938721" x2="32.7258" y2="68.6097" gradientUnits="userSpaceOnUse">
<stop stop-color="#9B32ED"/>
<stop offset="1" stop-color="#E932ED"/>
</linearGradient>
</defs>
</svg>
