<svg width="24" height="24" viewBox="0 0 24 24" fill="none" xmlns="http://www.w3.org/2000/svg">
<path fill-rule="evenodd" clip-rule="evenodd" d="M6.51429 2.05714C4.05267 2.05714 2.05714 4.05267 2.05714 6.51429V17.4857C2.05714 19.9473 4.05267 21.9429 6.51429 21.9429H17.4857C19.9473 21.9429 21.9429 19.9473 21.9429 17.4857V6.51429C21.9429 4.05267 19.9473 2.05714 17.4857 2.05714H6.51429ZM0 6.51429C0 2.91655 2.91655 0 6.51429 0H17.4857C21.0835 0 24 2.91655 24 6.51429V17.4857C24 21.0835 21.0835 24 17.4857 24H6.51429C2.91655 24 0 21.0835 0 17.4857V6.51429Z" fill="white"/>
<path fill-rule="evenodd" clip-rule="evenodd" d="M17.4857 1.02856H6.51428C3.4846 1.02856 1.02856 3.4846 1.02856 6.51428V17.4857C1.02856 20.5154 3.4846 22.9714 6.51428 22.9714H17.4857C20.5154 22.9714 22.9714 20.5154 22.9714 17.4857V6.51428C22.9714 3.4846 20.5154 1.02856 17.4857 1.02856ZM11.9995 8.91456C10.2954 8.91456 8.91383 10.2961 8.91383 12.0003C8.91383 13.7045 10.2954 15.086 11.9995 15.086C13.7037 15.086 15.0853 13.7045 15.0853 12.0003C15.0853 10.2961 13.7037 8.91456 11.9995 8.91456ZM6.85669 12.0003C6.85669 9.15996 9.15923 6.85742 11.9995 6.85742C14.8399 6.85742 17.1424 9.15996 17.1424 12.0003C17.1424 14.8406 14.8399 17.1431 11.9995 17.1431C9.15923 17.1431 6.85669 14.8406 6.85669 12.0003ZM19.1995 5.82886C19.1995 5.2608 18.739 4.80029 18.1709 4.80029C17.6028 4.80029 17.1423 5.2608 17.1423 5.82886V5.82961C17.1423 6.39768 17.6028 6.85818 18.1709 6.85818C18.739 6.85818 19.1995 6.39768 19.1995 5.82961V5.82886Z" fill="white"/>
</svg>
