<svg width="63" height="63" viewBox="0 0 63 63" fill="none" xmlns="http://www.w3.org/2000/svg">
<g clip-path="url(#clip0_255_1755)">
<path fill-rule="evenodd" clip-rule="evenodd" d="M18.3215 15.7066C19.0161 14.4836 19.3211 13.5679 19.3211 13.0132H22.3211C22.3211 14.3897 21.6723 15.8814 20.9302 17.1881C20.1578 18.5482 19.1452 19.9425 18.1555 21.1831C15.576 24.4276 12.4804 27.2752 8.91302 29.456L8.91293 29.456C8.7625 29.548 8.60986 29.6399 8.45524 29.7317L62.4633 29.7317V32.7317H8.45563C8.61033 32.8235 8.76303 32.9156 8.91351 33.0077L8.91373 33.0078C12.4809 35.1912 15.5763 38.0387 18.1556 41.2778C19.1456 42.52 20.1581 43.9163 20.9304 45.2773C21.6721 46.5842 22.3211 48.0761 22.3211 49.4501H19.3211C19.3211 48.8983 19.0163 47.9827 18.3213 46.7579C17.657 45.5874 16.7502 44.3278 15.8092 43.1471L15.8088 43.1466C13.4224 40.1498 10.5838 37.5475 7.34778 35.5667C6.11611 34.8131 4.78135 34.0929 3.47918 33.5648C2.16034 33.03 0.96974 32.7317 0 32.7317L0 29.7317C0.969652 29.7317 2.15955 29.4333 3.47809 28.8985C4.78002 28.3704 6.11493 27.6502 7.34837 26.8963C10.5838 24.9184 13.4219 22.3165 15.8081 19.3151L15.8097 19.313C16.7509 18.1334 17.6575 16.8759 18.3215 15.7066Z" fill="#101010"/>
</g>
<defs>
<clipPath id="clip0_255_1755">
<rect width="62.4633" height="62.4633" fill="white"/>
</clipPath>
</defs>
</svg>
