<svg width="58" height="58" viewBox="0 0 58 58" fill="none" xmlns="http://www.w3.org/2000/svg">
<g clip-path="url(#clip0_42_1614)">
<path d="M18.8032 37.5129C14.1258 38.4483 5.14516 37.9806 1.40323 33.7709C5.42581 36.4838 13.3774 33.8645 17.1194 31.9935C11.6 30.3096 4.11613 27.0354 2.33871 19.3645C5.05162 23.4806 11.8806 27.2225 16.6516 25.3516C10.6645 19.7387 7.85807 14.687 8.60645 7.57737C9.54194 13.1903 15.9968 18.8967 20.6742 20.7677C18.8032 11.3193 19.6452 5.7064 24.7903 0.374146C20.3936 7.67092 23.9484 14.5935 26.7548 18.429C29.4677 11.5064 33.2097 7.10963 40.5065 3.36769C34.9871 8.04511 31.9936 13.3774 33.1161 18.6161C39.3839 13.7516 45.4645 8.69995 54.1645 11.0387C49.1129 9.63544 40.2258 17.6806 38.9161 22.1709C44.3419 20.7677 52.4807 21.329 56.129 26.0064C51.9194 24.4161 44.529 25.0709 40.7871 27.8774C47.0548 29.0935 49.8613 31.8064 54.9129 39.2903C50.5161 33.8645 41.0677 31.8064 37.7936 33.3967C40.6936 36.2967 48.7387 41.7225 47.6161 51.4516C46.2129 43.0322 37.9807 39.9451 35.0807 38.2612C36.2032 44.0612 37.1387 51.2645 32.1807 58.0935C35.0807 52.1999 32.7419 45.2774 29.6548 40.6C28.0645 47.3354 24.9774 52.8548 18.429 55.6612C22.171 51.9193 22.9194 46.6806 23.8548 41.0677C17.3065 44.8096 11.6 48.2709 3.64839 46.587C10.2903 46.3999 14.9677 42.1903 18.8032 37.5129Z" fill="url(#paint0_linear_42_1614)"/>
</g>
<defs>
<linearGradient id="paint0_linear_42_1614" x1="28.7661" y1="0.374146" x2="28.7661" y2="58.0935" gradientUnits="userSpaceOnUse">
<stop stop-color="#6332ED"/>
<stop offset="1" stop-color="#9B32ED"/>
</linearGradient>
<clipPath id="clip0_42_1614">
<rect width="58" height="58" fill="white"/>
</clipPath>
</defs>
</svg>
