<svg width="24" height="24" viewBox="0 0 24 24" fill="none" xmlns="http://www.w3.org/2000/svg">
<g clip-path="url(#clip0_42_1713)">
<path fill-rule="evenodd" clip-rule="evenodd" d="M14.6311 2.45767C16.4332 1.78286 18.5122 1.73772 20.0581 3.12378C20.1964 3.08521 20.3317 3.04816 20.4645 3.0118L20.4649 3.01167L20.465 3.01167C21.2813 2.78812 22.0031 2.59045 22.7595 2.22449C22.9088 2.14233 23.084 2.10512 23.2644 2.12716C23.6843 2.1785 24 2.53509 24 2.95818V2.9593C24 3.03695 23.9893 3.11296 23.9689 3.18556C23.764 3.98785 23.2127 5.11319 22.7643 5.9933C22.6516 6.21444 22.5464 6.41807 22.4495 6.60563L22.4494 6.60573C22.3379 6.82152 22.2374 7.01604 22.1492 7.19148C22.0688 7.35141 22.0099 7.47335 21.9726 7.55847L21.9708 7.56264C21.9673 9.01108 21.7706 10.4528 21.3857 11.8496L21.3846 11.8536C20.0419 16.6335 16.5302 19.8362 12.2716 21.0733L12.2714 21.0734C8.5238 22.1613 4.27041 21.4007 0.436629 19.3111C0.0952196 19.125 -0.0731368 18.7284 0.030188 18.3535C0.133513 17.9787 0.48132 17.7243 0.869854 17.7394C2.66699 17.8094 4.23556 17.302 5.81276 16.4208C4.1714 15.4906 3.03143 14.3852 2.27672 13.1928C1.3265 11.6915 1.02628 10.1144 1.04022 8.7025C1.05409 7.29708 1.37869 6.04156 1.6932 5.14574C1.85127 4.6955 2.00903 4.32983 2.12881 4.07386C2.18877 3.94573 2.23943 3.84463 2.27615 3.77369C2.29452 3.73821 2.30942 3.71023 2.32028 3.69015L2.33348 3.66597L2.33767 3.6584L2.33915 3.65576L2.33972 3.65473C2.33997 3.65429 2.34019 3.65389 3.06983 4.0644L2.34019 3.65389C2.48052 3.40447 2.73854 3.24401 3.0243 3.22844C3.31006 3.21288 3.58398 3.34435 3.75058 3.57705C5.51573 6.04259 8.15848 7.52102 11.1628 7.68144V7.41871C11.1346 5.17602 12.5384 3.24127 14.6311 2.45767Z" fill="white"/>
</g>
<defs>
<clipPath id="clip0_42_1713">
<rect width="24" height="24" fill="white"/>
</clipPath>
</defs>
</svg>
